inDegrees=yes
name=ik_S53_A06_T01
DataType=double
version=3
OpenSimVersion=4.3-2021-08-27-4bc7ad9
endheader
time	pelvis_tilt	pelvis_list	pelvis_rotation	pelvis_tx	pelvis_ty	pelvis_tz	hip_flexion_r	hip_adduction_r	hip_rotation_r	knee_angle_r	knee_angle_r_beta	ankle_angle_r	subtalar_angle_r	mtp_angle_r	hip_flexion_l	hip_adduction_l	hip_rotation_l	knee_angle_l	knee_angle_l_beta	ankle_angle_l	subtalar_angle_l	mtp_angle_l	lumbar_extension	lumbar_bending	lumbar_rotation	arm_flex_r	arm_add_r	arm_rot_r	elbow_flex_r	pro_sup_r	wrist_flex_r	wrist_dev_r	arm_flex_l	arm_add_l	arm_rot_l	elbow_flex_l	pro_sup_l	wrist_flex_l	wrist_dev_l
22.9199999999996	-5.12249550354298	-1.128476939993247	23.59411092354323	0	0.9399999999999999	0	41.90274175624899	-10.4140236497651	-10.25934616184512	54.70548428476159	0.9547908196671049	0	0	0	41.90274175624899	-10.4140236497651	-10.25934616184512	54.70548428476159	0.9547908196671049	0	0	0	-4.765415153287108	-0.3143312546249745	-3.580804575195044	23.35733906825899	-2.556555590427158	5.025656378210571	43.35865691635387	123.4178758671706	0	0	52.6775111377322	-4.45865978931964	-2.062936651724426	31.01659648363577	118.8946684101878	0	0
22.9399999999996	-5.117631355752534	-1.137384314544712	23.57063528836666	0	0.9399999999999999	0	41.90389729771853	-10.41331681942387	-10.25909596641509	54.70555476715437	0.9547920498169237	0	0	0	41.90389729771853	-10.41331681942387	-10.25909596641509	54.70555476715437	0.9547920498169237	0	0	0	-4.764773698074912	-0.3232618658043137	-3.58976062033783	23.38245346924951	-2.532102410995148	5.052303847917386	43.36328408243264	123.4180914895932	0	0	52.67645418777916	-4.484780350579691	-2.061582775512241	30.98861664096837	118.8988010912233	0	0
22.9599999999996	-5.119906612104737	-1.140511325628796	23.58307547109375	0	0.9399999999999999	0	41.90461785362677	-10.41298451652625	-10.25896192973777	54.70560100753856	0.9547928568638752	0	0	0	41.90461785362677	-10.41298451652625	-10.25896192973777	54.70560100753856	0.9547928568638752	0	0	0	-4.768494363171905	-0.3229888565903341	-3.611439925469648	23.383217188139	-2.544718313002903	5.05567954436203	43.30873920546893	123.5013154865967	0	0	52.76037198025974	-4.360722767180538	-2.362372962284683	30.76633043762195	119.154373095727	0	0
22.9799999999996	-5.079538988988697	-1.16621727709851	23.53128250203071	0	0.9399999999999999	0	41.90345339536434	-10.41385049941515	-10.25925848969241	54.70553682159856	0.9547917366078887	0	0	0	41.90345339536434	-10.41385049941515	-10.25925848969241	54.70553682159856	0.9547917366078887	0	0	0	-4.742008417343818	-0.3611948084562205	-3.634335340888089	23.35446004583254	-2.476898467036022	5.148535690300951	43.27478417608013	123.5068291152527	0	0	52.70768140632943	-4.438521620163628	-2.340773721910014	30.67347793075062	119.2263866264334	0	0
22.9999999999996	-5.064546815013037	-1.173321099922836	23.53332540372232	0	0.9399999999999999	0	41.90427651179103	-10.41346869540094	-10.25910482983	54.70558940758782	0.9547926544065416	0	0	0	41.90427651179103	-10.41346869540094	-10.25910482983	54.70558940758782	0.9547926544065416	0	0	0	-4.731939912601606	-0.3695460156168114	-3.677596556406298	23.33089169360424	-2.44709222236805	5.180527534366345	43.25437530809882	123.5208539646108	0	0	52.70270994979	-4.436657344815709	-2.64217663852579	30.64665397418385	119.4306216243402	0	0
23.0199999999996	-5.059981705943519	-1.164993988160892	23.51665484231204	0	0.9399999999999999	0	41.91074506359971	-10.4110897303068	-10.258042457146	54.70601749125875	0.9548001258760733	0	0	0	41.91074506359971	-10.4110897303068	-10.258042457146	54.70601749125875	0.9548001258760733	0	0	0	-4.724850110786885	-0.3627045278329807	-3.660467546105245	23.36003886776836	-2.434981186668852	5.186202164926041	43.27274814434493	123.4787913809491	0	0	52.60127895429287	-4.398439445554211	-2.59863194229312	30.68907173433824	119.3494595011768	0	0
23.0399999999996	-5.035858243956955	-1.148419434513266	23.47951773050235	0	0.9399999999999999	0	41.91161631831373	-10.41068916376938	-10.25788067527132	54.70607343102539	0.9548011022091841	0	0	0	41.91161631831373	-10.41068916376938	-10.25788067527132	54.70607343102539	0.9548011022091841	0	0	0	-4.695069882267878	-0.3622854555439872	-3.599134749999892	23.35204739499877	-2.429840192559367	5.128060627537357	43.14323992805328	123.5306850449392	0	0	52.17938071041206	-4.439513087489702	-2.236813917438201	30.81821474339393	118.7386983230971	0	0
